Normalized EMG Linear Envelopes
nRows=262
nColumns=4

endheader
time	 med_gas_r	  soleus_r	 tib_ant_r	
12.2087	  0.021701	  0.263969	  0.058950	
12.2419	  0.021462	  0.250653	  0.054833	
12.2752	  0.021230	  0.237679	  0.051230	
12.3085	  0.021033	  0.225382	  0.048492	
12.3417	  0.020863	  0.214422	  0.046720	
12.375	  0.020678	  0.205640	  0.045795	
12.4083	  0.020433	  0.199786	  0.045506	
12.4415	  0.020123	  0.197160	  0.045644	
12.4748	  0.019785	  0.197282	  0.045988	
12.5081	  0.019480	  0.198946	  0.046271	
12.5413	  0.019257	  0.200716	  0.046230	
12.5746	  0.019132	  0.201538	  0.045749	
12.6079	  0.019098	  0.201010	  0.044938	
12.6411	  0.019146	  0.199233	  0.044054	
12.6744	  0.019271	  0.196585	  0.043325	
12.7077	  0.019474	  0.193635	  0.042854	
12.7409	  0.019754	  0.191139	  0.042663	
12.7742	  0.020099	  0.189913	  0.042775	
12.8075	  0.020477	  0.190578	  0.043208	
12.8407	  0.020837	  0.193329	  0.043887	
12.874	  0.021119	  0.197765	  0.044626	
12.9073	  0.021273	  0.202880	  0.045237	
12.9405	  0.021278	  0.207344	  0.045692	
12.9738	  0.021166	  0.210123	  0.046166	
13.0071	  0.021027	  0.211099	  0.046916	
13.0403	  0.020982	  0.211127	  0.048098	
13.0736	  0.021128	  0.211382	  0.049668	
13.1069	  0.021476	  0.212571	  0.051409	
13.1401	  0.021936	  0.214750	  0.053016	
13.1734	  0.022350	  0.217752	  0.054181	
13.2067	  0.022582	  0.221540	  0.054678	
13.2399	  0.022573	  0.226019	  0.054455	
13.2732	  0.022360	  0.230681	  0.053674	
13.3065	  0.022048	  0.234762	  0.052630	
13.3397	  0.021747	  0.237894	  0.051589	
13.373	  0.021515	  0.240475	  0.050678	
13.4062	  0.021336	  0.243177	  0.049897	
13.4395	  0.021144	  0.246033	  0.049225	
13.4728	  0.020887	  0.248096	  0.048659	
13.506	  0.020566	  0.248044	  0.048189	
13.5393	  0.020241	  0.245119	  0.047756	
13.5726	  0.019983	  0.239572	  0.047278	
13.6058	  0.019831	  0.232407	  0.046692	
13.6391	  0.019791	  0.224872	  0.046001	
13.6724	  0.019856	  0.218114	  0.045277	
13.7056	  0.020034	  0.213033	  0.044644	
13.7389	  0.020323	  0.210195	  0.044215	
13.7722	  0.020680	  0.209702	  0.044026	
13.8054	  0.021015	  0.211119	  0.044018	
13.8387	  0.021220	  0.213510	  0.044085	
13.872	  0.021236	  0.215639	  0.044140	
13.9052	  0.021083	  0.216347	  0.044162	
13.9385	  0.020851	  0.215076	  0.044189	
13.9718	  0.020643	  0.212275	  0.044306	
14.005	  0.020521	  0.209371	  0.044610	
14.0383	  0.020478	  0.208180	  0.045137	
14.0716	  0.020466	  0.210067	  0.045823	
14.1048	  0.020451	  0.215364	  0.046542	
14.1381	  0.020447	  0.223320	  0.047216	
14.1714	  0.020506	  0.232469	  0.047880	
14.2046	  0.020675	  0.241090	  0.048621	
14.2379	  0.020955	  0.247588	  0.049450	
14.2712	  0.021297	  0.250847	  0.050257	
14.3044	  0.021626	  0.250565	  0.050879	
14.3377	  0.021869	  0.247393	  0.051204	
14.371	  0.021990	  0.242673	  0.051216	
14.4042	  0.021992	  0.237840	  0.050990	
14.4375	  0.021910	  0.233816	  0.050676	
14.4708	  0.021785	  0.230775	  0.050441	
14.504	  0.021639	  0.228386	  0.050394	
14.5373	  0.021483	  0.226341	  0.050511	
14.5706	  0.021325	  0.224748	  0.050662	
14.6038	  0.021173	  0.224042	  0.050706	
14.6371	  0.021044	  0.224482	  0.050547	
14.6704	  0.020960	  0.225740	  0.050108	
14.7036	  0.020955	  0.227033	  0.049304	
14.7369	  0.021060	  0.227753	  0.048096	
14.7702	  0.021288	  0.228019	  0.046592	
14.8034	  0.021620	  0.228578	  0.045055	
14.8367	  0.022004	  0.230181	  0.043798	
14.87	  0.022374	  0.233046	  0.043044	
14.9032	  0.022674	  0.236839	  0.042830	
14.9365	  0.022886	  0.240995	  0.043011	
14.9698	  0.023043	  0.244868	  0.043345	
15.003	  0.023219	  0.247674	  0.043624	
15.0363	  0.023488	  0.248563	  0.043787	
15.0696	  0.023888	  0.247036	  0.043917	
15.1028	  0.024407	  0.243364	  0.044123	
15.1361	  0.024999	  0.238501	  0.044415	
15.1694	  0.025589	  0.233525	  0.044688	
15.2026	  0.026095	  0.229179	  0.044819	
15.2359	  0.026469	  0.225961	  0.044795	
15.2692	  0.026729	  0.224500	  0.044755	
15.3024	  0.026956	  0.225574	  0.044900	
15.3357	  0.027228	  0.229601	  0.045365	
15.369	  0.027565	  0.236080	  0.046146	
15.4022	  0.027917	  0.243610	  0.047131	
15.4355	  0.028226	  0.250560	  0.048186	
15.4687	  0.028487	  0.255833	  0.049206	
15.502	  0.028749	  0.259137	  0.050113	
15.5353	  0.029069	  0.260663	  0.050843	
15.5685	  0.029479	  0.260662	  0.051355	
15.6018	  0.029982	  0.259419	  0.051650	
15.6351	  0.030560	  0.257582	  0.051777	
15.6683	  0.031166	  0.256305	  0.051804	
15.7016	  0.031712	  0.256899	  0.051780	
15.7349	  0.032090	  0.260240	  0.051717	
15.7681	  0.032228	  0.266442	  0.051597	
15.8014	  0.032155	  0.275055	  0.051410	
15.8347	  0.032033	  0.285578	  0.051187	
15.8679	  0.032130	  0.297862	  0.051024	
15.9012	  0.032751	  0.311967	  0.051063	
15.9345	  0.034158	  0.327345	  0.051441	
15.9677	  0.036485	  0.341896	  0.052198	
16.001	  0.039653	  0.351971	  0.053207	
16.0343	  0.043290	  0.353898	  0.054224	
16.0675	  0.046754	  0.346210	  0.055065	
16.1008	  0.049318	  0.330795	  0.055749	
16.1341	  0.050485	  0.311987	  0.056460	
16.1673	  0.050267	  0.294425	  0.057339	
16.2006	  0.049197	  0.281396	  0.058314	
16.2339	  0.048055	  0.274570	  0.059131	
16.2671	  0.047464	  0.274691	  0.059556	
16.3004	  0.047643	  0.282156	  0.059542	
16.3337	  0.048443	  0.296771	  0.059215	
16.3669	  0.049585	  0.316854	  0.058733	
16.4002	  0.050891	  0.338621	  0.058153	
16.4335	  0.052327	  0.356828	  0.057417	
16.4667	  0.053911	  0.366846	  0.056444	
16.5	  0.055608	  0.367096	  0.055227	
16.5333	  0.057317	  0.360122	  0.053870	
16.5665	  0.058948	  0.351343	  0.052534	
16.5998	  0.060477	  0.346215	  0.051347	
16.6331	  0.061911	  0.347523	  0.050361	
16.6663	  0.063171	  0.354120	  0.049582	
16.6996	  0.064028	  0.361522	  0.049045	
16.7329	  0.064187	  0.364125	  0.048824	
16.7661	  0.063514	  0.358163	  0.048981	
16.7994	  0.062174	  0.343878	  0.049470	
16.8327	  0.060539	  0.325459	  0.050105	
16.8659	  0.058966	  0.308770	  0.050636	
16.8992	  0.057657	  0.298411	  0.050906	
16.9325	  0.056705	  0.295915	  0.050967	
16.9657	  0.056183	  0.299824	  0.051050	
16.999	  0.056149	  0.307190	  0.051404	
17.0323	  0.056563	  0.315323	  0.052121	
17.0655	  0.057274	  0.322769	  0.053070	
17.0988	  0.058092	  0.329149	  0.053970	
17.1321	  0.058876	  0.334463	  0.054539	
17.1653	  0.059555	  0.338719	  0.054646	
17.1986	  0.060100	  0.342069	  0.054364	
17.2319	  0.060473	  0.344928	  0.053873	
17.2651	  0.060577	  0.347652	  0.053294	
17.2984	  0.060238	  0.350052	  0.052590	
17.3317	  0.059294	  0.351389	  0.051642	
17.3649	  0.057765	  0.351048	  0.050398	
17.3982	  0.055940	  0.349288	  0.048925	
17.4315	  0.054211	  0.347168	  0.047330	
17.4647	  0.052811	  0.345455	  0.045692	
17.498	  0.051715	  0.343467	  0.044112	
17.5312	  0.050819	  0.339186	  0.042831	
17.5645	  0.050172	  0.330904	  0.042281	
17.5978	  0.049957	  0.319058	  0.043019	
17.631	  0.050277	  0.306521	  0.045603	
17.6643	  0.050989	  0.296924	  0.050520	
17.6976	  0.051789	  0.292445	  0.058212	
17.7308	  0.052432	  0.292916	  0.069087	
17.7641	  0.052848	  0.296729	  0.083298	
17.7974	  0.053061	  0.302282	  0.100141	
17.8306	  0.053098	  0.308620	  0.117412	
17.8639	  0.052982	  0.315131	  0.131470	
17.8972	  0.052800	  0.321312	  0.138517	
17.9304	  0.052704	  0.327179	  0.136507	
17.9637	  0.052832	  0.333681	  0.126289	
17.997	  0.053240	  0.342137	  0.111032	
18.0302	  0.053918	  0.352783	  0.094457	
18.0635	  0.054827	  0.363793	  0.079309	
18.0968	  0.055914	  0.372092	  0.066944	
18.13	  0.057082	  0.375651	  0.057761	
18.1633	  0.058201	  0.375329	  0.051694	
18.1966	  0.059168	  0.374425	  0.048376	
18.2298	  0.059971	  0.376151	  0.047166	
18.2631	  0.060696	  0.381213	  0.047278	
18.2964	  0.061472	  0.387570	  0.048027	
18.3296	  0.062404	  0.392304	  0.048980	
18.3629	  0.063531	  0.393684	  0.049936	
18.3962	  0.064821	  0.391748	  0.050803	
18.4294	  0.066175	  0.387521	  0.051523	
18.4627	  0.067457	  0.382201	  0.052079	
18.496	  0.068552	  0.377105	  0.052534	
18.5292	  0.069426	  0.373940	  0.053011	
18.5625	  0.070146	  0.374563	  0.053636	
18.5958	  0.070848	  0.380148	  0.054459	
18.629	  0.071665	  0.390460	  0.055448	
18.6623	  0.072635	  0.403856	  0.056519	
18.6956	  0.073653	  0.417910	  0.057569	
18.7288	  0.074551	  0.430125	  0.058458	
18.7621	  0.075269	  0.438396	  0.059010	
18.7954	  0.075972	  0.441320	  0.059068	
18.8286	  0.076965	  0.438586	  0.058599	
18.8619	  0.078467	  0.431232	  0.057738	
18.8952	  0.080425	  0.421362	  0.056725	
18.9284	  0.082542	  0.411309	  0.055791	
18.9617	  0.084447	  0.402828	  0.055105	
18.995	  0.085854	  0.396919	  0.054796	
19.0282	  0.086617	  0.394183	  0.054987	
19.0615	  0.086735	  0.395142	  0.055761	
19.0948	  0.086326	  0.400094	  0.057056	
19.128	  0.085561	  0.408659	  0.058599	
19.1613	  0.084539	  0.419497	  0.059977	
19.1946	  0.083245	  0.430525	  0.060848	
19.2278	  0.081635	  0.439517	  0.061158	
19.2611	  0.079780	  0.444755	  0.061172	
19.2944	  0.077926	  0.445518	  0.061298	
19.3276	  0.076412	  0.442343	  0.061822	
19.3609	  0.075531	  0.436971	  0.062729	
19.3942	  0.075397	  0.431781	  0.063731	
19.4274	  0.075894	  0.428771	  0.064437	
19.4607	  0.076734	  0.428557	  0.064529	
19.494	  0.077595	  0.430000	  0.063829	
19.5272	  0.078247	  0.430701	  0.062287	
19.5605	  0.078570	  0.428149	  0.059976	
19.5937	  0.078526	  0.420986	  0.057123	
19.627	  0.078146	  0.409734	  0.054118	
19.6603	  0.077535	  0.396573	  0.051403	
19.6935	  0.076840	  0.384388	  0.049308	
19.7268	  0.076169	  0.375845	  0.047951	
19.7601	  0.075570	  0.372981	  0.047271	
19.7933	  0.075087	  0.377055	  0.047155	
19.8266	  0.074827	  0.388152	  0.047514	
19.8599	  0.074940	  0.404662	  0.048264	
19.8931	  0.075526	  0.423360	  0.049265	
19.9264	  0.076561	  0.440444	  0.050311	
19.9597	  0.077921	  0.452932	  0.051192	
19.9929	  0.079445	  0.459373	  0.051775	
20.0262	  0.080970	  0.459548	  0.052045	
20.0595	  0.082297	  0.453751	  0.052066	
20.0927	  0.083154	  0.442552	  0.051930	
20.126	  0.083228	  0.427197	  0.051697	
20.1593	  0.082326	  0.410008	  0.051390	
20.1925	  0.080534	  0.394029	  0.051042	
20.2258	  0.078257	  0.382049	  0.050731	
20.2591	  0.076072	  0.375759	  0.050571	
20.2923	  0.074507	  0.375642	  0.050652	
20.3256	  0.073912	  0.381367	  0.050970	
20.3589	  0.074458	  0.392131	  0.051431	
20.3921	  0.076140	  0.406707	  0.051897	
20.4254	  0.078715	  0.423529	  0.052258	
20.4587	  0.081634	  0.441036	  0.052474	
20.4919	  0.084130	  0.458009	  0.052594	
20.5252	  0.085507	  0.473432	  0.052733	
20.5585	  0.085466	  0.486028	  0.053014	
20.5917	  0.084234	  0.494160	  0.053517	
20.625	  0.082416	  0.496525	  0.054278	
20.6583	  0.080642	  0.493113	  0.055315	
20.6915	  0.079262	  0.485480	  0.056592	
20.7248	  0.078286	  0.475966	  0.057949	
20.7581	  0.077580	  0.466549	  0.059077	
20.7913	  0.077067	  0.458281	  0.059640	
20.8246	  0.076713	  0.451525	  0.059474	
20.8579	  0.076418	  0.446362	  0.058673	
20.8911	  0.076037	  0.442586	  0.057507	
